<?xml version="1.0" standalone="no"?>
<!DOCTYPE svg PUBLIC "-//W3C//DTD SVG 20010904//EN"
 "http://www.w3.org/TR/2001/REC-SVG-20010904/DTD/svg10.dtd">
<svg version="1.0" xmlns="http://www.w3.org/2000/svg"
 width="570.000000pt" height="570.000000pt" viewBox="0 0 570.000000 570.000000"
 preserveAspectRatio="xMidYMid meet">
<metadata>
Created by potrace 1.11, written by Peter Selinger 2001-2013
</metadata>
<g transform="translate(0.000000,570.000000) scale(0.100000,-0.100000)"
fill="#000000" stroke="none">
<path d="M3006 5216 l-349 -91 204 -6 c112 -3 357 -7 544 -8 l339 -1 -74 76
c-154 156 -179 157 -664 30z"/>
<path d="M1625 5081 c-22 -10 -55 -30 -72 -45 -32 -27 -139 -193 -131 -202 4
-4 992 248 1023 260 6 3 -168 5 -385 5 -362 1 -398 -1 -435 -18z"/>
<path d="M2535 5094 c-11 -4 -272 -71 -580 -151 -308 -80 -561 -146 -561 -146
-1 -1 -152 -258 -337 -572 l-335 -570 -147 -532 -147 -531 323 -573 324 -574
398 -406 397 -406 347 -6 c190 -4 468 -7 617 -7 l271 0 600 155 c329 85 602
158 606 163 9 10 532 898 553 940 9 18 96 317 192 665 129 463 174 638 168
653 -5 12 -128 232 -274 489 l-265 468 -460 469 -459 468 -471 0 c-260 0 -532
2 -606 5 -74 2 -143 2 -154 -1z m-1132 -1181 c-7 -2 -19 -2 -25 0 -7 3 -2 5
12 5 14 0 19 -2 13 -5z m100 0 c-7 -2 -19 -2 -25 0 -7 3 -2 5 12 5 14 0 19 -2
13 -5z m620 0 c-7 -2 -21 -2 -30 0 -10 3 -4 5 12 5 17 0 24 -2 18 -5z m90 0
c-7 -2 -19 -2 -25 0 -7 3 -2 5 12 5 14 0 19 -2 13 -5z m-146 -9 c-3 -3 -12 -4
-19 -1 -8 3 -5 6 6 6 11 1 17 -2 13 -5z m203 -4 c18 -12 2 -12 -25 0 -13 6
-15 9 -5 9 8 0 22 -4 30 -9z m613 3 c3 -5 -29 -7 -71 -5 -135 4 -150 9 -40 10
59 1 109 -1 111 -5z m497 -28 l0 -35 50 0 50 0 1 -282 c1 -156 0 -298 -1 -315
l-2 -33 156 0 156 0 0 -75 0 -75 -239 0 -239 0 -3 33 c-2 17 -3 193 -1 390 l2
357 30 0 c27 0 30 3 30 30 l0 29 -87 4 -88 3 93 2 92 2 0 -35z m888 -2 c3 -32
4 -33 53 -33 l49 0 0 -75 0 -75 -155 0 -155 0 2 -77 3 -78 73 -3 72 -3 2 38 1
38 4 -37 4 -38 50 0 49 0 0 -70 0 -70 -130 0 -130 0 1 -90 1 -90 104 0 104 0
2 38 1 37 4 -37 4 -38 50 0 49 0 0 -75 0 -75 -244 0 -244 0 -3 33 c-2 17 -3
193 -1 390 l2 357 185 0 185 0 0 30 0 30 -240 3 -240 3 242 -1 243 0 3 -32z
m-2658 7 c21 -11 41 -24 45 -29 4 -8 -77 32 -94 46 -13 10 15 0 49 -17z m399
6 c-2 -2 -15 -9 -29 -15 -24 -11 -24 -11 -6 3 16 13 49 24 35 12z m-752 -29
c-16 -12 -37 -33 -48 -47 -17 -20 -18 -21 -10 -4 11 22 67 74 79 74 4 0 -6
-10 -21 -23z m1640 1 c-3 -8 -6 -5 -6 6 -1 11 2 17 5 13 3 -3 4 -12 1 -19z
m-987 -43 c-24 -25 -46 -45 -49 -45 -3 0 15 20 39 45 24 25 46 45 49 45 3 0
-15 -20 -39 -45z m580 -62 c0 -3 -20 -30 -45 -59 l-46 -53 -35 24 c-46 32 -96
40 -145 26 -92 -28 -142 -114 -143 -248 0 -71 4 -89 30 -139 38 -75 93 -108
171 -102 28 3 63 12 77 22 l27 17 -38 43 -38 44 -30 -21 -30 -20 28 29 28 29
41 -48 c30 -35 44 -45 53 -37 9 7 25 -3 59 -40 25 -27 46 -53 46 -59 0 -13
-56 -59 -104 -83 -56 -29 -174 -36 -248 -14 -31 9 -78 32 -107 51 -28 19 -55
35 -60 35 -5 0 -13 5 -17 12 -4 7 -3 8 4 4 18 -11 14 3 -9 35 -61 86 -81 261
-45 384 52 173 203 278 378 262 33 -3 56 -1 53 4 -4 5 28 -14 70 -41 41 -28
75 -53 75 -57z m-830 84 c25 -4 130 -76 130 -88 0 -7 -17 -33 -37 -58 -20 -25
-38 -48 -39 -49 -1 -2 -23 8 -48 23 -54 31 -139 42 -176 23 -29 -16 -52 -69
-32 -76 6 -2 10 -8 7 -12 -6 -10 47 -40 127 -70 l53 -20 -25 21 -25 21 25 -16
c14 -9 36 -24 50 -33 14 -9 42 -27 62 -41 20 -13 45 -36 55 -51 22 -33 67
-142 48 -117 -14 19 -15 19 -15 -8 0 -83 -51 -161 -134 -203 -99 -51 -263 -41
-371 22 -87 51 -85 45 -27 112 28 33 49 63 45 67 -3 3 -2 6 4 6 6 0 13 -6 16
-13 2 -7 29 -26 58 -42 45 -24 66 -30 122 -30 60 0 71 3 88 24 36 44 14 95
-53 120 -25 9 -28 8 -29 -12 l-2 -22 -4 22 c-5 27 -15 34 -79 60 -54 22 -147
83 -151 99 -1 5 -9 27 -17 49 -31 82 -12 160 55 227 62 61 117 79 224 73 44
-3 87 -6 95 -8z m1339 -29 c5 -18 46 -150 91 -293 45 -143 92 -291 104 -330
13 -38 26 -83 30 -98 l7 -28 -93 3 -92 3 -14 50 c-8 28 -19 68 -26 90 -10 37
-14 40 -48 43 -34 3 -38 1 -39 -20 l0 -23 -9 23 c-8 20 -16 22 -74 22 -36 0
-68 -5 -71 -11 -4 -6 -17 -47 -29 -92 l-21 -82 -87 -3 c-52 -2 -88 1 -88 7 0
7 208 678 235 759 3 8 34 12 109 12 l104 0 11 -32z m-362 -30 c-3 -8 -6 -5 -6
6 -1 11 2 17 5 13 3 -3 4 -12 1 -19z m-1470 -105 c-3 -10 -5 -4 -5 12 0 17 2
24 5 18 2 -7 2 -21 0 -30z m654 10 c-12 -20 -14 -14 -5 12 4 9 9 14 11 11 3
-2 0 -13 -6 -23z m-14 -45 c-3 -8 -6 -5 -6 6 -1 11 2 17 5 13 3 -3 4 -12 1
-19z m780 -20 c-3 -8 -6 -5 -6 6 -1 11 2 17 5 13 3 -3 4 -12 1 -19z m-790 -30
c-3 -7 -5 -2 -5 12 0 14 2 19 5 13 2 -7 2 -19 0 -25z m-558 -52 c27 -30 30
-34 10 -20 -28 20 -69 74 -69 90 0 5 6 0 12 -11 6 -11 27 -38 47 -59z m321 34
c8 -5 11 -10 5 -10 -5 0 -17 5 -25 10 -8 5 -10 10 -5 10 6 0 17 -5 25 -10z
m977 -112 c-3 -8 -6 -5 -6 6 -1 11 2 17 5 13 3 -3 4 -12 1 -19z m-740 -40 c-3
-8 -6 -5 -6 6 -1 11 2 17 5 13 3 -3 4 -12 1 -19z m-601 -122 c-25 -30 -46 -58
-46 -62 0 -4 8 -16 18 -27 17 -20 17 -20 -10 -2 -16 9 -25 22 -21 29 11 19 95
116 100 116 3 0 -15 -24 -41 -54z m104 7 c0 -7 -39 17 -46 28 -3 6 5 3 20 -6
14 -10 26 -19 26 -22z m1187 -5 c-3 -8 -6 -5 -6 6 -1 11 2 17 5 13 3 -3 4 -12
1 -19z m-957 8 c0 -2 -8 -10 -17 -17 -16 -13 -17 -12 -4 4 13 16 21 21 21 13z
m396 -113 l29 -25 -32 22 c-18 11 -42 35 -53 53 l-22 32 25 -29 c14 -15 38
-39 53 -53z m1001 -15 c-3 -8 -6 -5 -6 6 -1 11 2 17 5 13 3 -3 4 -12 1 -19z
m17 -34 c3 -8 2 -12 -4 -9 -6 3 -10 10 -10 16 0 14 7 11 14 -7z m-1427 -180
c-3 -3 -12 -4 -19 -1 -8 3 -5 6 6 6 11 1 17 -2 13 -5z m120 0 c-3 -3 -12 -4
-19 -1 -8 3 -5 6 6 6 11 1 17 -2 13 -5z m606 -1 c-7 -2 -19 -2 -25 0 -7 3 -2
5 12 5 14 0 19 -2 13 -5z m140 0 c-7 -2 -19 -2 -25 0 -7 3 -2 5 12 5 14 0 19
-2 13 -5z m698 -38 c17 -28 27 -35 53 -35 31 0 34 -5 96 -122 35 -68 73 -139
85 -158 11 -19 45 -89 75 -155 30 -66 57 -123 60 -127 3 -4 2 20 -1 55 -4 34
-11 162 -15 285 l-7 222 91 0 92 0 0 -400 0 -401 -96 3 -95 3 -102 195 c-57
107 -120 234 -142 282 -21 48 -40 86 -42 85 -1 -2 2 -41 7 -87 8 -67 18 -99
50 -162 23 -43 39 -78 36 -78 -3 0 -21 30 -40 68 l-35 67 -1 -187 0 -188 -85
0 -85 0 0 400 0 400 55 0 56 0 -16 30 c-15 30 -16 30 -105 30 l-90 0 -3 -397
-2 -398 -3 403 -2 402 95 0 96 0 20 -35z m382 28 c-23 -2 -64 -2 -90 0 -26 2
-7 3 42 3 50 0 71 -1 48 -3z m665 0 c-71 -2 -185 -2 -255 0 -71 1 -13 3 127 3
140 0 198 -2 128 -3z m-2689 -7 c-10 -9 -69 -36 -69 -32 0 7 52 35 64 36 5 0
7 -2 5 -4z m404 -91 c37 -24 67 -49 67 -54 0 -5 -21 -33 -48 -62 l-47 -51 -39
26 c-74 50 -146 43 -217 -21 -50 -45 -74 -115 -73 -213 1 -77 30 -170 54 -170
6 0 9 -4 5 -9 -8 -14 42 -49 87 -62 44 -11 86 -5 137 21 l34 17 -40 44 c-39
41 -42 43 -60 28 -10 -9 -25 -19 -33 -24 -8 -4 -1 4 15 19 17 14 32 25 35 26
3 0 24 -18 45 -40 23 -24 45 -38 55 -35 9 3 33 -15 62 -49 l48 -55 -42 -35
c-82 -70 -219 -96 -332 -62 -52 16 -158 81 -172 106 -70 124 -89 198 -81 320
8 145 65 254 169 320 71 46 142 64 232 58 l67 -4 -23 19 -23 19 25 -16 c14 -9
55 -36 93 -61z m276 72 c-2 -2 -29 -26 -59 -53 -33 -30 -46 -38 -32 -20 20 27
79 76 91 76 2 0 2 -1 0 -3z m472 -71 c106 -70 151 -145 171 -284 21 -149 -23
-313 -106 -395 -60 -61 -129 -90 -222 -95 -117 -6 -179 15 -311 106 -16 11
-15 11 5 2 21 -10 21 -8 -8 31 -52 73 -73 161 -68 297 3 106 6 123 34 182 43
90 75 124 152 162 63 31 73 33 174 33 107 0 108 0 85 19 l-22 18 25 -16 c14
-9 55 -36 91 -60z m-1281 -3 c-30 -32 -56 -60 -58 -63 -3 -3 0 4 6 16 11 21
90 104 100 104 3 0 -19 -26 -48 -57z m3050 -38 l0 -75 -160 0 -160 0 0 -95 0
-95 80 0 80 0 2 38 1 37 4 -37 4 -38 50 0 49 0 0 -75 0 -75 -135 0 -135 0 0
-155 0 -155 -89 0 -89 0 -3 33 c-2 17 -3 197 -1 400 l2 367 250 0 250 0 0 -75z
m-3117 -50 c-3 -9 -8 -14 -10 -11 -3 3 -2 9 2 15 9 16 15 13 8 -4z m-22 -56
c-5 -13 -10 -19 -10 -12 -1 15 10 45 15 40 3 -2 0 -15 -5 -28z m-14 -51 c-3
-8 -6 -5 -6 6 -1 11 2 17 5 13 3 -3 4 -12 1 -19z m740 -20 c-3 -7 -5 -2 -5 12
0 14 2 19 5 13 2 -7 2 -19 0 -25z m-750 -120 c-2 -24 -4 -7 -4 37 0 44 2 63 4
43 2 -21 2 -57 0 -80z m750 -50 c-3 -7 -5 -2 -5 12 0 14 2 19 5 13 2 -7 2 -19
0 -25z m-740 -40 c-3 -8 -6 -5 -6 6 -1 11 2 17 5 13 3 -3 4 -12 1 -19z m750
-10 c-3 -8 -6 -5 -6 6 -1 11 2 17 5 13 3 -3 4 -12 1 -19z m-713 -75 c9 -18 14
-33 12 -33 -6 0 -36 55 -36 66 0 11 5 3 24 -33z m750 -10 c9 -18 14 -33 12
-33 -6 0 -36 55 -36 66 0 11 5 3 24 -33z m-377 -29 c-3 -3 -12 -4 -19 -1 -8 3
-5 6 6 6 11 1 17 -2 13 -5z m-281 -81 l29 -25 -32 22 c-18 11 -42 35 -53 53
l-22 32 25 -29 c14 -15 38 -39 53 -53z m764 -21 c0 -8 -53 39 -72 65 -12 16
-2 9 25 -17 26 -24 47 -46 47 -48z m1200 -2 c11 -22 18 -40 15 -40 -2 0 -14
18 -25 40 -11 22 -18 40 -15 40 2 0 14 -18 25 -40z m-1624 -354 c29 -21 12
-28 -24 -10 -37 18 -87 7 -117 -27 -42 -45 -26 -172 24 -199 29 -15 83 -12
109 6 32 22 43 7 13 -17 -28 -23 -90 -25 -131 -4 -77 40 -88 177 -20 238 24
21 40 27 78 27 27 0 57 -6 68 -14z m348 -11 c68 -63 60 -194 -13 -238 -61 -36
-147 -12 -176 49 -30 64 -15 152 33 191 39 33 119 32 156 -2z m226 -105 l0
-130 72 0 c50 0 69 -3 62 -10 -6 -6 -43 -10 -85 -8 l-74 3 -3 138 c-2 117 0
137 13 137 13 0 15 -20 15 -130z m434 118 c31 -13 66 -82 66 -126 0 -79 -54
-142 -122 -142 -83 0 -128 49 -128 140 0 57 19 101 52 124 26 19 96 21 132 4z
m291 -95 c22 -57 43 -103 46 -103 3 0 24 46 46 103 25 64 47 103 57 105 14 3
16 -13 16 -137 0 -176 -18 -191 -22 -19 l-3 123 -41 -105 c-23 -57 -46 -106
-51 -107 -6 -2 -30 45 -54 104 l-44 108 -3 -122 c-4 -173 -22 -158 -22 18 0
127 2 140 17 137 11 -2 31 -38 58 -105z m506 78 c24 -30 24 -57 0 -78 -19 -16
-19 -17 11 -45 24 -23 29 -33 24 -56 -4 -15 -16 -35 -27 -44 -22 -19 -87 -31
-139 -26 l-35 3 -3 139 -3 138 77 -4 c65 -3 79 -7 95 -27z m209 -105 c0 -79
-4 -137 -10 -141 -6 -4 -10 43 -10 134 0 87 4 141 10 141 6 0 10 -51 10 -134z
m309 4 c53 -136 57 -150 42 -150 -5 0 -17 23 -26 50 l-17 51 -61 -3 -62 -3
-16 -45 c-9 -24 -22 -46 -29 -48 -9 -3 -11 1 -6 14 67 178 103 264 113 264 6
0 34 -59 62 -130z"/>
<path d="M2856 3611 c-9 -44 -14 -92 -11 -108 4 -20 3 -22 -3 -9 -6 14 -12 5
-25 -43 -9 -33 -17 -63 -17 -66 0 -3 37 -5 81 -5 73 0 81 2 77 18 -3 9 -20 79
-39 155 -18 75 -36 137 -39 137 -4 0 -14 -36 -24 -79z"/>
<path d="M2344 2731 c-81 -37 -120 -128 -112 -262 7 -111 44 -185 111 -218 80
-40 162 -7 207 84 22 44 25 63 25 160 0 123 -16 168 -75 219 -38 32 -66 36
-50 7 18 -35 11 -37 -10 -3 -23 37 -39 39 -96 13z m123 -73 c-3 -8 -6 -5 -6 6
-1 11 2 17 5 13 3 -3 4 -12 1 -19z m10 -135 c-2 -21 -4 -4 -4 37 0 41 2 58 4
38 2 -21 2 -55 0 -75z m-10 -75 c-3 -8 -6 -5 -6 6 -1 11 2 17 5 13 3 -3 4 -12
1 -19z m-7 -26 c0 -5 -7 -17 -15 -28 -14 -18 -14 -17 -4 9 12 27 19 34 19 19z
m-30 -55 c0 -2 -12 -14 -27 -28 l-28 -24 24 28 c23 25 31 32 31 24z m-83 -63
c-3 -3 -12 -4 -19 -1 -8 3 -5 6 6 6 11 1 17 -2 13 -5z"/>
<path d="M1900 1832 c-96 -48 -65 -232 40 -232 22 0 48 8 63 20 70 55 54 192
-25 219 -39 14 -37 14 -78 -7z"/>
<path d="M2583 1836 c-57 -26 -80 -107 -49 -181 37 -88 164 -69 185 28 24 104
-52 190 -136 153z"/>
<path d="M3330 1790 l0 -50 55 0 c42 0 60 5 75 20 11 11 20 25 20 30 0 6 -9
19 -20 30 -15 15 -33 20 -75 20 l-55 0 0 -50z"/>
<path d="M3330 1660 l0 -60 53 0 c70 0 101 17 105 57 4 44 -26 63 -100 63
l-58 0 0 -60z"/>
<path d="M3912 1768 c-12 -35 -22 -66 -22 -70 0 -5 23 -8 50 -8 28 0 50 2 50
4 0 9 -44 121 -50 129 -3 4 -16 -21 -28 -55z"/>
<path d="M4058 4822 c328 -336 580 -585 560 -552 -8 14 -100 176 -204 360
-104 184 -201 349 -217 367 -53 60 -115 80 -265 87 l-134 5 260 -267z"/>
<path d="M1227 4755 c-127 -35 -170 -60 -219 -131 -21 -29 -55 -137 -138 -439
-61 -220 -113 -407 -116 -415 -3 -10 -2 -11 4 -5 9 10 593 999 600 1017 5 11
3 11 -131 -27z"/>
<path d="M4763 4060 c8 -14 112 -198 232 -410 119 -212 224 -396 233 -410 15
-24 16 -23 39 60 29 103 27 184 -7 250 -14 27 -114 136 -267 289 -134 135
-238 235 -230 221z"/>
<path d="M505 3288 c-88 -148 -168 -289 -177 -311 -9 -23 -17 -70 -17 -104 -1
-55 4 -72 46 -152 26 -50 49 -91 53 -91 6 0 263 921 258 926 -2 1 -75 -119
-163 -268z"/>
<path d="M5087 2569 c-87 -314 -157 -572 -155 -574 8 -7 432 731 445 777 23
78 7 144 -62 268 -32 55 -60 100 -64 100 -3 0 -77 -257 -164 -571z"/>
<path d="M386 2442 c-18 -64 -30 -129 -29 -162 2 -104 20 -127 347 -460 166
-168 302 -305 304 -304 4 2 -582 1034 -588 1034 -3 0 -18 -48 -34 -108z"/>
<path d="M4594 1372 c-138 -235 -251 -428 -250 -429 4 -5 163 40 190 54 44 22
95 72 116 114 17 32 203 680 197 685 -1 1 -115 -190 -253 -424z"/>
<path d="M1148 1320 c11 -19 88 -156 171 -305 114 -203 163 -281 197 -313 60
-55 123 -74 237 -70 l86 3 -355 360 c-196 198 -347 344 -336 325z"/>
<path d="M3736 761 l-530 -138 205 -6 c351 -12 579 -9 635 8 68 20 126 72 176
158 23 40 48 82 56 95 12 18 12 22 1 21 -8 0 -252 -62 -543 -138z"/>
<path d="M1985 523 c97 -96 148 -123 229 -123 34 0 773 184 785 196 2 2 -196
4 -441 4 -245 0 -494 3 -554 6 l-109 6 90 -89z"/>
</g>
</svg>
