<svg xmlns="http://www.w3.org/2000/svg" width="1614.59" height="257.811" viewBox="0 0 1614.59 257.811">
  <g id="Group_103" data-name="Group 103" transform="translate(-157.427 -1937.5)">
    <rect id="Rectangle_123" data-name="Rectangle 123" width="10" height="10" transform="translate(426 1937.5)" fill="#fff"/>
    <rect id="Rectangle_124" data-name="Rectangle 124" width="10" height="10" transform="translate(1525 2095.5)" fill="#fff"/>
    <g id="Group_101" data-name="Group 101" transform="matrix(0.875, -0.485, 0.485, 0.875, -794.013, 413.102)">
      <rect id="Rectangle_121" data-name="Rectangle 121" width="31" height="31" transform="translate(205.925 2089.5)" fill="#57fea7"/>
      <rect id="Rectangle_163" data-name="Rectangle 163" width="31" height="31" transform="translate(210.575 2095.7)" fill="#57fea7"/>
      <rect id="Rectangle_164" data-name="Rectangle 164" width="31" height="31" transform="translate(221.425 2108.1)" fill="#57fea7"/>
      <rect id="Rectangle_165" data-name="Rectangle 165" width="31" height="31" transform="translate(226.075 2120.5)" fill="#57fea7"/>
    </g>
    <rect id="Rectangle_126" data-name="Rectangle 126" width="20" height="20" transform="translate(1727 1973.5)" fill="aqua"/>
    <g id="Group_90" data-name="Group 90" transform="translate(-1610 1010)">
      <rect id="Rectangle_94" data-name="Rectangle 94" width="95.12" height="23.2" transform="translate(1794.12 972.3)" fill="#fff"/>
      <rect id="Rectangle_95" data-name="Rectangle 95" width="95.12" height="23.2" transform="translate(1852 953.7)" fill="#fff"/>
      <rect id="Rectangle_96" data-name="Rectangle 96" width="61.48" height="23.2" transform="translate(1820.76 937.5)" fill="#fff"/>
      <rect id="Rectangle_97" data-name="Rectangle 97" width="61.48" height="23.2" transform="translate(1820.76 949.036)" fill="#fff"/>
    </g>
    <g id="Group_91" data-name="Group 91" transform="translate(-8 1322)">
      <rect id="Rectangle_81" data-name="Rectangle 81" width="129.894" height="13.238" transform="translate(1611.238 771.5)" fill="aqua"/>
      <rect id="Rectangle_88" data-name="Rectangle 88" width="116.656" height="16.547" transform="translate(1663.361 793.839)" fill="aqua"/>
      <rect id="Rectangle_82" data-name="Rectangle 82" width="117.484" height="29.785" transform="translate(1598 780.601)" fill="aqua"/>
    </g>
    <path id="Path_115" data-name="Path 115" d="M562.427,269.561h116" transform="translate(902 1714)" fill="none" stroke="#fff" stroke-width="1.5"/>
    <path id="Path_118" data-name="Path 118" d="M562.427,269.561h77.352" transform="translate(-405 1925)" fill="none" stroke="#fff" stroke-width="1.5"/>
  </g>
</svg>
