<svg xmlns="http://www.w3.org/2000/svg" width="2016.185"  viewBox="0 0 2016.185 1328.776">
  <g transform="translate(19 0)">
    <g transform="translate(-810 932.056) rotate(-90)">
      <rect width="36" height="189" transform="translate(150.056 791)" fill="aqua"/>
      <rect width="27" height="189" transform="translate(171.056 910)" fill="aqua"/>
    </g>
    <rect width="10" height="10" transform="translate(125 235.5)" fill="#fff"/>
    <rect width="10" height="10" transform="translate(1492 622.5)" fill="#fff"/>
    <rect width="10" height="10" transform="translate(1282 729.5)" fill="#fff"/>
    <rect width="10" height="10" transform="translate(1061 214.5)" fill="#fff"/>
    <rect width="20" height="20" transform="translate(1450 858.5)" fill="#57fea7"/>
    <rect width="20" height="20" transform="translate(1398 175.5)" fill="aqua"/>
    <rect width="20" height="20" transform="translate(810 257.5)" fill="#57fea7"/>
    <rect width="82" height="20" transform="translate(1811 967.5)" fill="#fff"/>
    <rect width="82" height="20" transform="translate(1779 957.5)" fill="#fff"/>
    <rect width="53" height="20" transform="translate(1815 937.5)" fill="#fff"/>
    <rect width="53" height="20" transform="translate(1815 942.5)" fill="#fff"/>
    <g transform="translate(32 -126)">
      <rect width="191" height="20" transform="translate(1640 830.5)" fill="aqua"/>
      <rect width="141" height="20" transform="translate(1677 798.5)" fill="aqua"/>
      <rect width="142" height="36" transform="translate(1670 808.5)" fill="aqua"/>
    </g>
    <g transform="translate(3111.379 -1334.62) rotate(90)">
      <path d="M1552.016,1145.194v371.37" transform="translate(-121 -31)" fill="none" stroke="#fff" stroke-width="1.5"/>
      <path d="M1552.016,1145.194v371.37" transform="translate(-105.607 -31)" fill="none" stroke="#fff" stroke-width="1.5"/>
      <path d="M1552.016,1145.194v371.37" transform="translate(-90.213 -31)" fill="none" stroke="#fff" stroke-width="1.5"/>
      <path d="M1552.016,1145.194v371.37" transform="translate(-74.82 -31)" fill="none" stroke="#fff" stroke-width="1.5"/>
      <path d="M1552.016,1145.194v371.37" transform="translate(-59.426 -31)" fill="none" stroke="#fff" stroke-width="1.5"/>
      <path d="M1552.016,1145.194v371.37" transform="translate(-44.033 -31)" fill="none" stroke="#fff" stroke-width="1.5"/>
      <path d="M1552.016,1145.194v371.37" transform="translate(-29.033 -31)" fill="none" stroke="#fff" stroke-width="1.5"/>
      <path d="M1552.016,1145.194v371.37" transform="translate(-14.033 -31)" fill="none" stroke="#fff" stroke-width="1.5"/>
      <path d="M1552.016,1145.194v371.37" transform="translate(0.967 -31)" fill="none" stroke="#fff" stroke-width="1.5"/>
      <path d="M1552.016,1145.194v371.37" transform="translate(15.967 -31)" fill="none" stroke="#fff" stroke-width="1.5"/>
    </g>
    <g transform="translate(806.018 -54.279) rotate(45)">
      <path d="M1011.181,474.88l-22.04-71.993a34.552,34.552,0,0,1,2.572-26.324l35.385-66.485a34.642,34.642,0,0,1,20.448-16.9l71.995-22.04a34.553,34.553,0,0,1,26.324,2.571l66.484,35.385a34.642,34.642,0,0,1,16.9,20.448l22.04,71.993a34.556,34.556,0,0,1-2.571,26.326l-35.385,66.484a34.637,34.637,0,0,1-20.448,16.9l-71.993,22.039a34.553,34.553,0,0,1-26.324-2.571l-66.485-35.385A34.217,34.217,0,0,1,1011.181,474.88Z" transform="translate(-625 695.516)" fill="none" stroke="#fff" stroke-miterlimit="10" stroke-width="1.5"/>
      <path d="M1011.181,474.88l-22.04-71.993a34.552,34.552,0,0,1,2.572-26.324l35.385-66.485a34.642,34.642,0,0,1,20.448-16.9l71.995-22.04a34.553,34.553,0,0,1,26.324,2.571l66.484,35.385a34.642,34.642,0,0,1,16.9,20.448l22.04,71.993a34.556,34.556,0,0,1-2.571,26.326l-35.385,66.484a34.637,34.637,0,0,1-20.448,16.9l-71.993,22.039a34.553,34.553,0,0,1-26.324-2.571l-66.485-35.385A34.217,34.217,0,0,1,1011.181,474.88Z" transform="translate(-625 683.702)" fill="none" stroke="#fff" stroke-miterlimit="10" stroke-width="1.5"/>
      <path d="M1011.181,474.88l-22.04-71.993a34.552,34.552,0,0,1,2.572-26.324l35.385-66.485a34.642,34.642,0,0,1,20.448-16.9l71.995-22.04a34.553,34.553,0,0,1,26.324,2.571l66.484,35.385a34.642,34.642,0,0,1,16.9,20.448l22.04,71.993a34.556,34.556,0,0,1-2.571,26.326l-35.385,66.484a34.637,34.637,0,0,1-20.448,16.9l-71.993,22.039a34.553,34.553,0,0,1-26.324-2.571l-66.485-35.385A34.217,34.217,0,0,1,1011.181,474.88Z" transform="translate(-625 670.814)" fill="none" stroke="#fff" stroke-miterlimit="10" stroke-width="1.5"/>
      <path d="M1011.181,474.88l-22.04-71.993a34.552,34.552,0,0,1,2.572-26.324l35.385-66.485a34.642,34.642,0,0,1,20.448-16.9l71.995-22.04a34.553,34.553,0,0,1,26.324,2.571l66.484,35.385a34.642,34.642,0,0,1,16.9,20.448l22.04,71.993a34.556,34.556,0,0,1-2.571,26.326l-35.385,66.484a34.637,34.637,0,0,1-20.448,16.9l-71.993,22.039a34.553,34.553,0,0,1-26.324-2.571l-66.485-35.385A34.217,34.217,0,0,1,1011.181,474.88Z" transform="translate(-625 659)" fill="none" stroke="#fff" stroke-miterlimit="10" stroke-width="1.5"/>
    </g>
    <g transform="translate(-4197.691 -7495.571)">
      <path d="M5447.021,7601.128a6.432,6.432,0,0,0-1.635-2.871l-35.66-36.287a6.449,6.449,0,0,0-6.214-1.723l-49.255,12.739a6.454,6.454,0,0,0-4.6,4.521l-13.594,49.026a6.433,6.433,0,0,0-.029,3.34Z" transform="translate(-3.214)" fill="#f4f4f4"/>
      <path d="M5327.532,7658.089a6.452,6.452,0,0,0,1.635,2.87l35.66,36.287a6.446,6.446,0,0,0,6.215,1.723l49.254-12.738a6.449,6.449,0,0,0,4.6-4.521l13.6-49.025a6.442,6.442,0,0,0,.028-3.341Z" transform="translate(0 -28.074)" fill="#f4f4f4"/>
    </g>
    <rect width="20" height="20" transform="translate(474 773.5)" fill="aqua"/>
    <path d="M562.427,269.561h181.3" transform="translate(-458 -167)" fill="none" stroke="#fff" stroke-width="1.5"/>
    <path d="M562.427,269.561h116" transform="translate(1107 182)" fill="none" stroke="#fff" stroke-width="1.5"/>
    <path d="M562.427,269.561H608" transform="translate(917 107)" fill="none" stroke="#56fea6" stroke-width="1.5"/>
    <path d="M562.427,269.561h47.339" transform="translate(433 96)" fill="none" stroke="#fff" stroke-width="1.5"/>
    <path d="M562.427,269.561H937.845" transform="translate(531.687 173)" fill="none" stroke="aqua" stroke-width="1.5"/>
    <path d="M562.427,269.561h77.352" transform="translate(1070 514)" fill="none" stroke="#fff" stroke-width="1.5"/>
    <path d="M562.427,269.561H783.5" transform="translate(-23 368)" fill="none" stroke="#fff" stroke-width="1.5"/>
    <g transform="translate(0 -15)">
      <rect width="181" height="216" transform="translate(445 -53)" fill="#57fea7"/>
      <rect width="27" height="216" transform="translate(614 23)" fill="#57fea7"/>
      <rect width="27" height="89" transform="translate(432 50)" fill="#57fea7"/>
    </g>
  </g>
</svg>
