<svg id="speakers-title" xmlns="http://www.w3.org/2000/svg" width="872.694" height="213" viewBox="0 0 872.694 213">
  <g transform="translate(-516.427 -1947)">
    <g transform="translate(-70.195 -18.191)">
      <text id="SPEAKERS" transform="translate(1031.195 2132.191)" fill="#57fea7" font-size="156" font-family="OpenSans-Extrabold, Open Sans" font-weight="800" letter-spacing="0.03em"><tspan x="-404.323" y="0">SPEAKERS</tspan></text>
      <text id="SPEAKERS-2" data-name="SPEAKERS" transform="translate(1042.195 2132.191)" fill="aqua" font-size="156" font-family="OpenSans-Extrabold, Open Sans" font-weight="800" letter-spacing="0.03em"><tspan x="-404.323" y="0">SPEAKERS</tspan></text>
      <text id="SPEAKERS-3" data-name="SPEAKERS" transform="translate(1037.195 2132.191)" fill="#fff" font-size="156" font-family="OpenSans-Extrabold, Open Sans" font-weight="800" letter-spacing="0.03em"><tspan x="-404.323" y="0">SPEAKERS</tspan></text>
    </g>
    <rect id="Rectangle_140" data-name="Rectangle 140" width="10" height="10" transform="translate(622 1995.5)" fill="aqua"/>
    <rect id="Rectangle_151" data-name="Rectangle 151" width="10" height="10" transform="translate(557 2095.5)" fill="#57fea7"/>
    <rect id="Rectangle_152" data-name="Rectangle 152" width="10" height="10" transform="translate(770 2061.5)" fill="#57fea7"/>
    <rect id="Rectangle_153" data-name="Rectangle 153" width="10" height="10" transform="translate(668 2071.5)" fill="#57fea7"/>
    <rect id="Rectangle_154" data-name="Rectangle 154" width="10" height="10" transform="translate(873 2035.5)" fill="#57fea7"/>
    <rect id="Rectangle_156" data-name="Rectangle 156" width="10" height="10" transform="translate(1022 2018.5)" fill="#57fea7"/>
    <rect id="Rectangle_157" data-name="Rectangle 157" width="10" height="10" transform="translate(978 2030.5)" fill="#57fea7"/>
    <rect id="Rectangle_158" data-name="Rectangle 158" width="10" height="10" transform="translate(1090 2095.5)" fill="#57fea7"/>
    <rect id="Rectangle_159" data-name="Rectangle 159" width="10" height="10" transform="translate(1181 2058.5)" fill="#57fea7"/>
    <rect id="Rectangle_160" data-name="Rectangle 160" width="10" height="10" transform="translate(1233 2033.5)" fill="#57fea7"/>
    <rect id="Rectangle_161" data-name="Rectangle 161" width="10" height="10" transform="translate(1334 2078.5)" fill="#57fea7"/>
    <rect id="Rectangle_162" data-name="Rectangle 162" width="10" height="10" transform="translate(1288 2028.5)" fill="#57fea7"/>
    <rect id="Rectangle_141" data-name="Rectangle 141" width="10" height="10" transform="translate(642 2079.5)" fill="aqua"/>
    <rect id="Rectangle_142" data-name="Rectangle 142" width="10" height="10" transform="translate(731 2066.5)" fill="aqua"/>
    <rect id="Rectangle_155" data-name="Rectangle 155" width="10" height="10" transform="translate(915 2063.5)" fill="#57fea7"/>
    <rect id="Rectangle_143" data-name="Rectangle 143" width="10" height="10" transform="translate(698 1995.5)" fill="aqua"/>
    <rect id="Rectangle_144" data-name="Rectangle 144" width="10" height="10" transform="translate(838 2053.5)" fill="aqua"/>
    <rect id="Rectangle_145" data-name="Rectangle 145" width="10" height="10" transform="translate(822 1995.5)" fill="aqua"/>
    <rect id="Rectangle_146" data-name="Rectangle 146" width="10" height="10" transform="translate(953 2110.5)" fill="aqua"/>
    <rect id="Rectangle_147" data-name="Rectangle 147" width="10" height="10" transform="translate(1051 2058.5)" fill="aqua"/>
    <rect id="Rectangle_148" data-name="Rectangle 148" width="10" height="10" transform="translate(1142 2061.5)" fill="aqua"/>
    <rect id="Rectangle_149" data-name="Rectangle 149" width="10" height="10" transform="translate(1258 2005.5)" fill="aqua"/>
    <rect id="Rectangle_150" data-name="Rectangle 150" width="10" height="10" transform="translate(1370 2079.5)" fill="aqua"/>
    <rect id="Rectangle_125" data-name="Rectangle 125" width="20" height="20" transform="translate(583 1995.5)" fill="#1d2055"/>
    <rect id="Rectangle_127" data-name="Rectangle 127" width="20" height="20" transform="translate(622 2100.5)" fill="#1d2055"/>
    <rect id="Rectangle_128" data-name="Rectangle 128" width="20" height="20" transform="translate(1118 1995.5)" fill="#1d2055"/>
    <rect id="Rectangle_129" data-name="Rectangle 129" width="20" height="20" transform="translate(988 2100.5)" fill="#1d2055"/>
    <rect id="Rectangle_130" data-name="Rectangle 130" width="20" height="20" transform="translate(998 2100.5)" fill="#1d2055"/>
    <rect id="Rectangle_134" data-name="Rectangle 134" width="20" height="20" transform="translate(1344 2048.5)" fill="#1d2055"/>
    <rect id="Rectangle_135" data-name="Rectangle 135" width="20" height="20" transform="translate(1243 2053.5)" fill="#1d2055"/>
    <rect id="Rectangle_136" data-name="Rectangle 136" width="20" height="20" transform="translate(1051 2023.5)" fill="#1d2055"/>
    <rect id="Rectangle_137" data-name="Rectangle 137" width="20" height="20" transform="translate(1188 2105.5)" fill="#1d2055"/>
    <rect id="Rectangle_138" data-name="Rectangle 138" width="20" height="20" transform="translate(1208 1990.5)" fill="#1d2055"/>
    <rect id="Rectangle_139" data-name="Rectangle 139" width="20" height="20" transform="translate(1356 2095.5)" fill="#1d2055"/>
    <rect id="Rectangle_131" data-name="Rectangle 131" width="20" height="20" transform="translate(835 2095.5)" fill="#1d2055"/>
    <rect id="Rectangle_133" data-name="Rectangle 133" width="20" height="20" transform="translate(658 2033.5)" fill="#1d2055"/>
    <rect id="Rectangle_132" data-name="Rectangle 132" width="20" height="20" transform="translate(928 2015.5)" fill="#1d2055"/>
    <path id="Path_116" data-name="Path 116" d="M562.427,269.561h116" transform="translate(-46 1804)" fill="none" stroke="#fff" stroke-width="1.5"/>
    <path id="Path_117" data-name="Path 117" d="M562.427,269.561h49.694" transform="translate(777 1804)" fill="none" stroke="#fff" stroke-width="1.5"/>
  </g>
</svg>
